<mxfile host="app.diagrams.net" modified="2022-04-21T04:25:28.452Z" agent="5.0 (Windows NT 10.0; Win64; x64) AppleWebKit/537.36 (KHTML, like Gecko) Chrome/100.0.4896.127 Safari/537.36 Edg/100.0.1185.44" etag="rDV_jupvr_09u_L4NxHl" version="17.4.0" type="github">
  <diagram id="C5RBs43oDa-KdzZeNtuy" name="Page-1">
    <mxGraphModel dx="1007" dy="641" grid="1" gridSize="10" guides="1" tooltips="1" connect="1" arrows="1" fold="1" page="1" pageScale="1" pageWidth="827" pageHeight="1169" math="0" shadow="0">
      <root>
        <mxCell id="WIyWlLk6GJQsqaUBKTNV-0" />
        <mxCell id="WIyWlLk6GJQsqaUBKTNV-1" parent="WIyWlLk6GJQsqaUBKTNV-0" />
        <mxCell id="wkkwkTODxsin4exKlkUD-13" style="edgeStyle=orthogonalEdgeStyle;rounded=0;orthogonalLoop=1;jettySize=auto;html=1;" edge="1" parent="WIyWlLk6GJQsqaUBKTNV-1" source="wkkwkTODxsin4exKlkUD-0" target="wkkwkTODxsin4exKlkUD-11">
          <mxGeometry relative="1" as="geometry" />
        </mxCell>
        <mxCell id="wkkwkTODxsin4exKlkUD-14" style="edgeStyle=orthogonalEdgeStyle;rounded=0;orthogonalLoop=1;jettySize=auto;html=1;exitX=0.5;exitY=1;exitDx=0;exitDy=0;" edge="1" parent="WIyWlLk6GJQsqaUBKTNV-1" source="wkkwkTODxsin4exKlkUD-0" target="wkkwkTODxsin4exKlkUD-12">
          <mxGeometry relative="1" as="geometry" />
        </mxCell>
        <mxCell id="wkkwkTODxsin4exKlkUD-0" value="ZZSY" style="rounded=1;whiteSpace=wrap;html=1;" vertex="1" parent="WIyWlLk6GJQsqaUBKTNV-1">
          <mxGeometry x="460" y="250" width="120" height="60" as="geometry" />
        </mxCell>
        <mxCell id="wkkwkTODxsin4exKlkUD-2" value="" style="endArrow=none;dashed=1;html=1;rounded=0;" edge="1" parent="WIyWlLk6GJQsqaUBKTNV-1">
          <mxGeometry width="50" height="50" relative="1" as="geometry">
            <mxPoint x="280" y="600" as="sourcePoint" />
            <mxPoint x="280" y="220" as="targetPoint" />
          </mxGeometry>
        </mxCell>
        <mxCell id="wkkwkTODxsin4exKlkUD-3" value="安全大数据平台" style="rounded=1;whiteSpace=wrap;html=1;" vertex="1" parent="WIyWlLk6GJQsqaUBKTNV-1">
          <mxGeometry x="110" y="250" width="120" height="60" as="geometry" />
        </mxCell>
        <mxCell id="wkkwkTODxsin4exKlkUD-5" value="" style="endArrow=classic;html=1;rounded=0;exitX=1;exitY=0.5;exitDx=0;exitDy=0;entryX=0;entryY=0.5;entryDx=0;entryDy=0;" edge="1" parent="WIyWlLk6GJQsqaUBKTNV-1" source="wkkwkTODxsin4exKlkUD-3" target="wkkwkTODxsin4exKlkUD-0">
          <mxGeometry width="50" height="50" relative="1" as="geometry">
            <mxPoint x="390" y="310" as="sourcePoint" />
            <mxPoint x="440" y="260" as="targetPoint" />
          </mxGeometry>
        </mxCell>
        <mxCell id="wkkwkTODxsin4exKlkUD-6" value="追踪溯源任务" style="text;html=1;strokeColor=none;fillColor=none;align=center;verticalAlign=middle;whiteSpace=wrap;rounded=0;" vertex="1" parent="WIyWlLk6GJQsqaUBKTNV-1">
          <mxGeometry x="290" y="250" width="110" height="30" as="geometry" />
        </mxCell>
        <mxCell id="wkkwkTODxsin4exKlkUD-16" style="edgeStyle=orthogonalEdgeStyle;rounded=0;orthogonalLoop=1;jettySize=auto;html=1;" edge="1" parent="WIyWlLk6GJQsqaUBKTNV-1" source="wkkwkTODxsin4exKlkUD-11" target="wkkwkTODxsin4exKlkUD-15">
          <mxGeometry relative="1" as="geometry" />
        </mxCell>
        <mxCell id="wkkwkTODxsin4exKlkUD-11" value="自动溯源" style="rounded=0;whiteSpace=wrap;html=1;" vertex="1" parent="WIyWlLk6GJQsqaUBKTNV-1">
          <mxGeometry x="360" y="370" width="120" height="60" as="geometry" />
        </mxCell>
        <mxCell id="wkkwkTODxsin4exKlkUD-17" style="edgeStyle=orthogonalEdgeStyle;rounded=0;orthogonalLoop=1;jettySize=auto;html=1;exitX=0.5;exitY=1;exitDx=0;exitDy=0;entryX=0.5;entryY=0;entryDx=0;entryDy=0;" edge="1" parent="WIyWlLk6GJQsqaUBKTNV-1" source="wkkwkTODxsin4exKlkUD-12" target="wkkwkTODxsin4exKlkUD-15">
          <mxGeometry relative="1" as="geometry" />
        </mxCell>
        <mxCell id="wkkwkTODxsin4exKlkUD-12" value="人工溯源" style="rounded=0;whiteSpace=wrap;html=1;" vertex="1" parent="WIyWlLk6GJQsqaUBKTNV-1">
          <mxGeometry x="560" y="370" width="120" height="60" as="geometry" />
        </mxCell>
        <mxCell id="wkkwkTODxsin4exKlkUD-19" style="edgeStyle=orthogonalEdgeStyle;rounded=0;orthogonalLoop=1;jettySize=auto;html=1;exitX=0;exitY=0.5;exitDx=0;exitDy=0;" edge="1" parent="WIyWlLk6GJQsqaUBKTNV-1" source="wkkwkTODxsin4exKlkUD-15" target="wkkwkTODxsin4exKlkUD-18">
          <mxGeometry relative="1" as="geometry" />
        </mxCell>
        <mxCell id="wkkwkTODxsin4exKlkUD-15" value="溯源结果输出" style="rounded=0;whiteSpace=wrap;html=1;" vertex="1" parent="WIyWlLk6GJQsqaUBKTNV-1">
          <mxGeometry x="460" y="500" width="120" height="60" as="geometry" />
        </mxCell>
        <mxCell id="wkkwkTODxsin4exKlkUD-18" value="安全大数据平台" style="rounded=1;whiteSpace=wrap;html=1;" vertex="1" parent="WIyWlLk6GJQsqaUBKTNV-1">
          <mxGeometry x="110" y="500" width="120" height="60" as="geometry" />
        </mxCell>
        <mxCell id="wkkwkTODxsin4exKlkUD-20" value="" style="endArrow=none;html=1;rounded=0;endFill=0;" edge="1" parent="WIyWlLk6GJQsqaUBKTNV-1">
          <mxGeometry relative="1" as="geometry">
            <mxPoint x="354" y="250" as="sourcePoint" />
            <mxPoint x="474" y="210" as="targetPoint" />
            <Array as="points">
              <mxPoint x="384" y="210" />
            </Array>
          </mxGeometry>
        </mxCell>
        <mxCell id="wkkwkTODxsin4exKlkUD-21" value="不确定，提要求" style="edgeLabel;resizable=0;html=1;align=center;verticalAlign=middle;" connectable="0" vertex="1" parent="wkkwkTODxsin4exKlkUD-20">
          <mxGeometry relative="1" as="geometry">
            <mxPoint x="26" y="-10" as="offset" />
          </mxGeometry>
        </mxCell>
        <mxCell id="wkkwkTODxsin4exKlkUD-22" value="追踪溯源结果" style="text;html=1;strokeColor=none;fillColor=none;align=center;verticalAlign=middle;whiteSpace=wrap;rounded=0;" vertex="1" parent="WIyWlLk6GJQsqaUBKTNV-1">
          <mxGeometry x="290" y="540" width="110" height="30" as="geometry" />
        </mxCell>
        <mxCell id="wkkwkTODxsin4exKlkUD-25" value="" style="endArrow=none;html=1;rounded=0;endFill=0;" edge="1" parent="WIyWlLk6GJQsqaUBKTNV-1">
          <mxGeometry relative="1" as="geometry">
            <mxPoint x="610" y="340" as="sourcePoint" />
            <mxPoint x="730" y="300" as="targetPoint" />
            <Array as="points">
              <mxPoint x="640" y="300" />
            </Array>
          </mxGeometry>
        </mxCell>
        <mxCell id="wkkwkTODxsin4exKlkUD-26" value="&lt;span style=&quot;font-size: 12px ; background-color: rgb(248 , 249 , 250)&quot;&gt;半人工半自动化/多人协同&lt;/span&gt;" style="edgeLabel;resizable=0;html=1;align=center;verticalAlign=middle;" connectable="0" vertex="1" parent="wkkwkTODxsin4exKlkUD-25">
          <mxGeometry relative="1" as="geometry">
            <mxPoint x="26" y="-10" as="offset" />
          </mxGeometry>
        </mxCell>
        <mxCell id="wkkwkTODxsin4exKlkUD-27" value="客户发现病毒，创建溯源任务&lt;br&gt;溯源结果：怎么发生的，在哪进来的，传播路径是什么" style="text;whiteSpace=wrap;html=1;" vertex="1" parent="WIyWlLk6GJQsqaUBKTNV-1">
          <mxGeometry x="690" y="220" width="330" height="60" as="geometry" />
        </mxCell>
      </root>
    </mxGraphModel>
  </diagram>
</mxfile>
